HIERARCHY
ROOT pelvis
{
  OFFSET 0 100 0
  CHANNELS 6 Xposition Yposition Zposition Zrotation Xrotation Yrotation
  JOINT pelvis_right_femur
  {
    OFFSET -10.78128 -3.44521 -0.5502486
    CHANNELS 3 Zrotation Xrotation Yrotation
    JOINT right_femur_tibia
    {
      OFFSET -0.8047443 -44.0398 -0.1307829
      CHANNELS 3 Zrotation Xrotation Yrotation
      JOINT right_tibia_foot
      {
        OFFSET 3.006224 -47.83518 -5
        CHANNELS 3 Zrotation Xrotation Yrotation
        End Site
        {
          OFFSET 0 -5 15
        }
      }
    }
  }
  JOINT pelvis_left_femur
  {
    OFFSET 10.78128 -3.44521 -0.5502486
    CHANNELS 3 Zrotation Xrotation Yrotation
    JOINT left_femur_tibia
    {
      OFFSET 0.8047443 -44.0398 -0.1307829
      CHANNELS 3 Zrotation Xrotation Yrotation
      JOINT left_tibia_foot
      {
        OFFSET -4.370144 -48.10324 -4.275266
        CHANNELS 3 Zrotation Xrotation Yrotation
        End Site
        {
          OFFSET 0 -5 15
        }
      }
    }
  }
  JOINT pelvis_spine1
  {
    OFFSET 0 6.468898 -3.129235
    CHANNELS 3 Zrotation Xrotation Yrotation
    JOINT spine1
    {
      OFFSET 0 23.15396 4.99043
      CHANNELS 3 Zrotation Xrotation Yrotation
      JOINT spine2
      {
        OFFSET 0 20.79997 -5.064912
        CHANNELS 3 Zrotation Xrotation Yrotation
        JOINT neck
        {
          OFFSET 0 14.38658 9.616178
          CHANNELS 3 Zrotation Xrotation Yrotation
          End Site
          {
            OFFSET 0 20 0
          }
        }
      }
      JOINT right_manubrium
      {
        OFFSET -5.722621 16.35077 3.967754
        CHANNELS 3 Zrotation Xrotation Yrotation
        JOINT right_clavicle
        {
          OFFSET -13.16364 1.694482 -4.693211
          CHANNELS 3 Zrotation Xrotation Yrotation
          JOINT right_humerus
          {
            OFFSET -28.5034 -0.3100689 -2.792744
            CHANNELS 3 Zrotation Xrotation Yrotation
            JOINT right_radius
            {
              OFFSET -25.15693 0.02248979 -1.271978
              CHANNELS 3 Zrotation Xrotation Yrotation
              End Site
              {
                OFFSET -15 0 0
              }
            }
          }
        }
      }
      JOINT left_manubrium
      {
        OFFSET 5.722621 16.35077 3.967754
        CHANNELS 3 Zrotation Xrotation Yrotation
        JOINT left_clavicle
        {
          OFFSET 13.16364 1.694482 -4.693211
          CHANNELS 3 Zrotation Xrotation Yrotation
          JOINT left_humerus
          {
            OFFSET 29.39168 -1.063119 -2.237045
            CHANNELS 3 Zrotation Xrotation Yrotation
            JOINT left_radius
            {
              OFFSET 24.59957 -0.9528479 0.9047498
              CHANNELS 3 Zrotation Xrotation Yrotation
              End Site
              {
                OFFSET 15 -0 -0
              }
            }
          }
        }
      }
    }
  }
}
MOTION
Frames: 19
Frame Time: 0.0416666666667
667.1808 105.2036 3044.254 3.113928 -6.535857 18.29105 0.4098736 -11.53778 1.463238 -0 49.19108 -0 -2.777597 5.139221 -5.333996 -5.394184 2.927469 -8.023222 -0 14.79271 -0 0.4574348 -14.4884 16.96751 -1.126673 0.8303296 10.2313 -0.1437666 13.09613 -5.273514 -2.516776 20.90544 6.669652 8.580687 -14.78892 -0.5359491 2.209639 -27.94516 12.48581 84.50487 30.29292 -8.862749 -0 0 28.89279 -16.05709 3.434897 1.458971 1.662162 -23.84387 -11.13668 -97.55018 3.571337 41.04612 -0 0 8.726432 11.32666 8.294772 -3.817506
669.2297 105.0403 3049.008 2.864431 -6.101349 19.14765 0.3652396 -17.80445 0.3963014 -0 39.61184 -0 -2.957319 2.398536 -5.80506 -5.194227 7.147661 -7.986376 -0 12.10746 -0 0.07603706 -16.59978 15.81675 -1.248342 1.028272 10.27168 -0.1525722 12.68914 -5.457446 -2.608824 20.94695 6.676656 8.765371 -14.68558 -0.735342 2.000604 -27.89277 12.30022 84.77551 31.15361 -9.134648 -0 0 28.87409 -15.75099 2.418912 0.726062 1.661585 -23.82017 -11.07908 -97.07016 3.510647 40.67746 -0 0 8.786207 11.3555 8.087059 -4.473726
671.2141 104.1665 3053.932 2.791617 -5.269967 19.8752 -0.01166874 -22.69524 -0.7485793 -0 28.52426 -0 -2.936513 0.3830731 -6.126483 -5.159447 10.6841 -7.877881 -0 10.38293 -0 -0.5118831 -18.59602 14.59167 -1.345319 1.079735 10.19477 -0.1640485 12.28217 -5.709256 -2.630381 20.96528 6.633558 8.864518 -14.59707 -0.8674426 1.703038 -27.65021 12.06232 85.23658 31.81927 -9.788334 -0 0 28.49722 -15.64693 1.625267 0.1996098 1.860756 -23.9913 -10.96906 -96.26658 3.623452 39.6161 -0 0 7.805363 11.45314 8.015307 -5.173735
673.2117 102.779 3059.226 2.855083 -4.254888 20.51732 -0.4058834 -25.86065 -1.622258 -0 18.31855 -0 -2.682726 -0.5068719 -6.420909 -5.276944 13.59852 -7.679224 -0 10.26179 -0 -1.334573 -20.07659 13.44338 -1.411478 0.9828461 10.00615 -0.1735632 11.91661 -6.003523 -2.581827 20.96161 6.549181 8.866305 -14.54321 -0.9135825 1.349438 -27.23849 11.79889 85.84393 32.22162 -10.76008 -0 0 27.78797 -15.74094 1.135816 -0.07756489 2.243122 -24.3397 -10.81905 -95.22115 3.881782 37.95014 -0 0 5.871615 11.62278 8.071974 -5.862391
675.2805 101.19 3065.016 2.93452 -3.385249 21.09544 -0.3952749 -27.23158 -1.867683 -0 11.03004 -0 -2.315029 -0.404056 -6.791744 -5.417335 15.98044 -7.402859 -0 12.29101 -0 -2.398317 -20.5945 12.53164 -1.443168 0.7547502 9.722235 -0.1743999 11.63355 -6.309188 -2.470505 20.94145 6.436993 8.767894 -14.54104 -0.8632007 0.9810357 -26.69706 11.54438 86.53298 32.31061 -11.94476 -0 0 26.80212 -16.0078 0.9951255 -0.08417866 2.765444 -24.82452 -10.64703 -94.04809 4.242419 35.84221 -0 0 3.187357 11.85191 8.239986 -6.472187
677.4386 99.76177 3071.336 2.90231 -3.002136 21.58259 0.3207736 -26.95849 -1.308763 -0 7.743997 -0 -2.020097 0.1988473 -7.268243 -5.400058 17.79517 -7.081834 -0 16.83645 -0 -3.634161 -19.81568 12.00981 -1.43909 0.4297822 9.370949 -0.1603065 11.46761 -6.592166 -2.310182 20.91307 6.313297 8.578753 -14.59963 -0.7178082 0.6428566 -26.08276 11.33497 87.22232 32.06765 -13.20296 -0 0 25.62988 -16.40654 1.203982 0.1749054 3.361798 -25.38519 -10.47474 -92.88385 4.657568 33.5238 -0 0 0.06273049 12.11456 8.496935 -6.934635
679.6609 98.82975 3078.122 2.707666 -3.32359 21.88951 1.742662 -25.28104 -0.05632001 -0 8.27786 -0 -1.935861 0.7104018 -7.784782 -5.090913 18.77449 -6.761483 -0 23.92329 -0 -4.891036 -17.69946 12.00022 -1.400146 0.05060026 8.98738 -0.128301 11.44043 -6.820973 -2.118168 20.88534 6.194035 8.319661 -14.71782 -0.4907532 0.3744735 -25.46019 11.20006 87.82908 31.51213 -14.38812 -0 0 24.38375 -16.89188 1.72536 0.6697084 3.959297 -25.95491 -10.32361 -91.86091 5.087429 31.25193 0 0 -3.143508 12.38231 8.820966 -7.201494
681.8909 98.61915 3085.2 2.417858 -4.337691 21.88886 3.548616 -22.41858 1.54233 -0 11.30697 -0 -2.083055 0.6644827 -8.21049 -4.482731 18.43458 -6.488249 -0 33.04587 -0 -5.98228 -14.60002 12.54269 -1.329287 -0.3425343 8.607067 -0.08071758 11.55535 -6.97316 -1.911679 20.86494 6.091194 8.01844 -14.88354 -0.2044403 0.201279 -24.8886 11.15466 88.28917 30.6992 -15.3799 -0 0 23.17891 -17.42431 2.496631 1.351027 4.495834 -26.47583 -10.20928 -91.07896 5.505315 29.25322 0 0 -6.101176 12.6326 9.194355 -7.257432
684.0577 99.17072 3092.304 2.191652 -5.785672 21.49202 5.222947 -18.54583 3.049935 -0 14.91184 -0 -2.384018 -0.1654605 -8.398254 -3.71283 16.2594 -6.287093 -0 43.0414 -0 -6.744807 -11.2131 13.54664 -1.231505 -0.718734 8.260526 -0.02571059 11.79367 -7.040781 -1.705327 20.85351 6.009732 7.704853 -15.07326 0.1120569 0.1285699 -24.41204 11.19477 88.57473 29.71259 -16.10963 -0 0 22.11604 -17.97213 3.43697 2.156274 4.930346 -26.90874 -10.13682 -90.58469 5.894148 27.68221 0 0 -8.569792 12.84536 9.601956 -7.113365
686.0963 100.3089 3099.154 2.198534 -7.26244 20.73245 6.285085 -13.84651 4.103551 -0 17.36582 -0 -2.743332 -1.745684 -8.23021 -2.98553 11.99922 -6.140465 -0 52.15257 -0 -7.083 -8.349933 14.80154 -1.113945 -1.05872 7.96957 0.02466336 12.11391 -7.034025 -1.510173 20.8461 5.945702 7.405075 -15.25394 0.4251387 0.1381951 -24.05344 11.29671 88.70474 28.65325 -16.57401 -0 0 21.26538 -18.50682 4.448314 3.014078 5.244477 -27.23719 -10.09931 -90.36108 6.241678 26.59807 0 0 -10.44083 12.99176 10.02559 -6.787053
687.9713 101.6925 3105.562 2.505288 -8.39161 19.7697 6.536261 -8.588538 4.549345 -0 17.848 -0 -3.115031 -3.842207 -7.668892 -2.417266 5.921081 -5.985072 -0 58.38479 -0 -7.012959 -6.598836 16.06795 -0.985619 -1.353822 7.744372 0.05925188 12.45932 -6.979753 -1.333579 20.83319 5.887731 7.135951 -15.39219 0.7022606 0.191428 -23.8121 11.42354 88.74072 27.62087 -16.83152 -0 0 20.64986 -18.99856 5.422515 3.852402 5.439553 -27.46725 -10.08205 -90.33186 6.540336 25.95988 0 0 -11.75621 13.03169 10.43962 -6.290593
689.6948 102.9378 3111.491 2.979697 -8.962587 18.78932 6.164929 -3.151144 4.485256 -0 16.66097 -0 -3.491512 -6.189754 -6.798216 -1.917939 -1.205062 -5.722083 -0 60.12346 -0 -6.690401 -6.049231 17.19563 -0.8561677 -1.602402 7.583293 0.07319646 12.77703 -6.910278 -1.179691 20.8066 5.824313 6.903037 -15.46965 0.9220446 0.2447647 -23.6684 11.54019 88.75653 26.69243 -16.9691 -0 0 20.24289 -19.41923 6.267259 4.611908 5.531534 -27.61974 -10.07093 -90.39541 6.788948 25.65719 0 0 -12.66404 12.9357 10.81389 -5.643387
691.3298 103.7444 3117.031 3.318258 -8.937896 17.89108 5.586782 2.043749 4.160674 -0 14.75176 -0 -3.828278 -8.682755 -5.789767 -1.247794 -8.428785 -5.252586 -0 56.7577 -0 -6.347574 -6.296266 18.15744 -0.7342349 -1.80469 7.478788 0.06936492 13.03933 -6.845821 -1.051244 20.76564 5.753487 6.70622 -15.49246 1.081189 0.274477 -23.59917 11.62964 88.79144 25.91111 -17.04649 -0 0 19.99896 -19.75139 6.939171 5.256757 5.543926 -27.71499 -10.05986 -90.4826 6.989135 25.58092 0 0 -13.30019 12.71841 11.12331 -4.900373
692.9741 103.9589 3122.342 3.240116 -8.375365 17.07055 5.128992 6.669239 3.796236 -0 12.9575 -0 -4.002355 -11.33974 -4.78684 -0.2451931 -14.97795 -4.557982 -0 49.00999 -0 -6.144247 -6.750873 18.97368 -0.6266447 -1.958881 7.425787 0.05469063 13.24934 -6.78523 -0.9520485 20.71765 5.685478 6.548232 -15.48284 1.189125 0.2899216 -23.59349 11.69743 88.8255 25.29216 -17.06155 -0 0 19.89565 -19.99347 7.451335 5.774769 5.498936 -27.76044 -10.05301 -90.59295 7.137435 25.68639 0 0 -13.68563 12.44243 11.35564 -4.154655
694.7337 103.5793 3127.603 2.705915 -7.395976 16.28313 4.830958 10.58952 3.47633 -0 11.68238 -0 -3.881562 -13.99844 -3.825796 0.9615417 -20.36316 -3.781509 -0 38.83114 -0 -6.066502 -7.004457 19.64153 -0.5383769 -2.060737 7.424895 0.03539021 13.42706 -6.713135 -0.8876062 20.6726 5.635598 6.437301 -15.46086 1.255474 0.3226946 -23.65483 11.76141 88.80083 24.83704 -16.96679 -0 0 19.94589 -20.15423 7.845317 6.168295 5.410554 -27.75071 -10.06104 -90.77603 7.222529 25.99612 0 0 -13.73441 12.18256 11.51024 -3.500953
696.6941 102.7281 3132.99 1.970995 -6.217149 15.50541 4.491219 13.82747 3.18525 -0 11.17024 -0 -3.453942 -16.10314 -2.891772 1.945653 -24.28328 -3.232542 -0 28.81609 -0 -5.961845 -6.987761 20.14208 -0.4725947 -2.105041 7.480318 0.0146827 13.59048 -6.613672 -0.8635167 20.63726 5.615793 6.383307 -15.43483 1.283113 0.4040102 -23.79307 11.83756 88.66262 24.54503 -16.71012 -0 0 20.17955 -20.24078 8.155396 6.44213 5.28243 -27.67534 -10.09423 -91.08687 7.229914 26.55992 0 0 -13.3345 11.98745 11.58931 -2.996488
698.9013 101.6181 3138.643 1.427202 -5.132345 14.75584 3.862236 16.42845 2.905103 -0 11.89809 -0 -2.888241 -16.86623 -2.029415 2.203562 -26.55909 -3.257846 -0 21.24502 -0 -5.655345 -6.878617 20.46646 -0.4309262 -2.085661 7.597801 -0.006851899 13.74614 -6.478069 -0.8843022 20.6134 5.63193 6.39385 -15.40399 1.269148 0.5504151 -24.01873 11.93287 88.38253 24.41975 -16.25827 -0 0 20.62451 -20.24876 8.390029 6.593637 5.108614 -27.5238 -10.15799 -91.55965 7.146655 27.42455 0 0 -12.40391 11.86809 11.58907 -2.650916
701.3586 100.5222 3144.648 1.359933 -4.389939 14.106 2.833271 18.31679 2.663525 -0 14.60706 -0 -2.444225 -15.63553 -1.356056 1.472673 -27.14453 -4.003212 -0 17.23356 -0 -5.041977 -6.88991 20.6084 -0.4143406 -1.994154 7.783734 -0.02975383 13.88964 -6.304622 -0.9536552 20.59988 5.685701 6.473428 -15.365 1.208357 0.7630618 -24.34168 12.04649 87.9585 24.47106 -15.59679 -0 0 21.29969 -20.16002 8.531253 6.608431 4.875336 -27.28554 -10.25312 -92.20685 6.962172 28.62637 0 0 -10.89565 11.80774 11.49699 -2.441151
704.0327 99.7364 3151.004 1.802027 -4.085688 13.68605 1.510136 19.23937 2.513048 -0 19.9217 -0 -2.288643 -12.18063 -0.9754523 -0.08934498 -26.13176 -5.25578 -0 16.53248 -0 -4.113063 -7.119138 20.55746 -0.4240692 -1.819557 8.042945 -0.05420326 14.00988 -6.096782 -1.074437 20.59594 5.776811 6.623684 -15.31607 1.096144 1.03246 -24.76895 12.17364 87.40719 24.71213 -14.72544 -0 0 22.21023 -19.9476 8.541991 6.462417 4.564785 -26.95018 -10.37763 -93.02455 6.668144 30.1861 0 0 -8.790201 11.77684 11.29625 -2.33201
